<svg width="154" height="20" viewBox="0 0 154 20" fill="none" xmlns="http://www.w3.org/2000/svg">
<path d="M0.08 15V6.624H3.128C3.904 6.624 4.496 6.836 4.904 7.26C5.312 7.684 5.516 8.276 5.516 9.036C5.516 9.796 5.312 10.388 4.904 10.812C4.496 11.236 3.904 11.448 3.128 11.448H1.088V15H0.08ZM1.088 10.572H3.104C3.528 10.572 3.856 10.468 4.088 10.26C4.328 10.044 4.448 9.74 4.448 9.348V8.724C4.448 8.332 4.328 8.032 4.088 7.824C3.856 7.608 3.528 7.5 3.104 7.5H1.088V10.572ZM9.79531 15.144C9.28331 15.144 8.84331 15.048 8.47531 14.856C8.10731 14.656 7.80331 14.372 7.56331 14.004C7.32331 13.636 7.14731 13.184 7.03531 12.648C6.92331 12.112 6.86731 11.5 6.86731 10.812C6.86731 10.132 6.92331 9.524 7.03531 8.988C7.14731 8.444 7.32331 7.988 7.56331 7.62C7.80331 7.252 8.10731 6.972 8.47531 6.78C8.84331 6.58 9.28331 6.48 9.79531 6.48C10.3073 6.48 10.7473 6.58 11.1153 6.78C11.4833 6.972 11.7873 7.252 12.0273 7.62C12.2673 7.988 12.4433 8.444 12.5553 8.988C12.6673 9.524 12.7233 10.132 12.7233 10.812C12.7233 11.5 12.6673 12.112 12.5553 12.648C12.4433 13.184 12.2673 13.636 12.0273 14.004C11.7873 14.372 11.4833 14.656 11.1153 14.856C10.7473 15.048 10.3073 15.144 9.79531 15.144ZM9.79531 14.268C10.1313 14.268 10.4153 14.204 10.6473 14.076C10.8793 13.94 11.0713 13.752 11.2233 13.512C11.3753 13.272 11.4833 12.984 11.5473 12.648C11.6193 12.304 11.6553 11.92 11.6553 11.496V10.128C11.6553 9.712 11.6193 9.332 11.5473 8.988C11.4833 8.644 11.3753 8.352 11.2233 8.112C11.0713 7.872 10.8793 7.688 10.6473 7.56C10.4153 7.424 10.1313 7.356 9.79531 7.356C9.45931 7.356 9.17531 7.424 8.94331 7.56C8.71131 7.688 8.51931 7.872 8.36731 8.112C8.21531 8.352 8.10331 8.644 8.03131 8.988C7.96731 9.332 7.93531 9.712 7.93531 10.128V11.496C7.93531 11.92 7.96731 12.304 8.03131 12.648C8.10331 12.984 8.21531 13.272 8.36731 13.512C8.51931 13.752 8.71131 13.94 8.94331 14.076C9.17531 14.204 9.45931 14.268 9.79531 14.268ZM14.4706 15L13.8106 6.624H14.7106L15.0586 11.424L15.2386 13.956H15.3346L16.4386 8.808H17.5666L18.6706 13.956H18.7666L18.9466 11.424L19.2946 6.624H20.1706L19.5106 15H18.0586L17.0386 9.996H16.9426L15.9226 15H14.4706ZM21.6659 15V6.624H26.8259V7.5H22.6739V10.32H26.6819V11.196H22.6739V14.124H26.8259V15H21.6659ZM29.8693 15H28.8613V6.624H31.9093C32.6853 6.624 33.2773 6.836 33.6853 7.26C34.0933 7.684 34.2973 8.276 34.2973 9.036C34.2973 9.716 34.1213 10.26 33.7693 10.668C33.4173 11.076 32.9053 11.312 32.2333 11.376L34.3693 15H33.2413L31.2013 11.424H29.8693V15ZM31.8853 10.572C32.3093 10.572 32.6373 10.468 32.8693 10.26C33.1093 10.044 33.2293 9.74 33.2293 9.348V8.724C33.2293 8.332 33.1093 8.032 32.8693 7.824C32.6373 7.608 32.3093 7.5 31.8853 7.5H29.8693V10.572H31.8853ZM36.0566 15V6.624H41.2166V7.5H37.0646V10.32H41.0726V11.196H37.0646V14.124H41.2166V15H36.0566ZM43.3119 6.624H45.6519C46.6759 6.624 47.4399 6.976 47.9439 7.68C48.4479 8.384 48.6999 9.428 48.6999 10.812C48.6999 12.196 48.4479 13.24 47.9439 13.944C47.4399 14.648 46.6759 15 45.6519 15H43.3119V6.624ZM45.6039 14.124C46.2759 14.124 46.7799 13.892 47.1159 13.428C47.4599 12.964 47.6319 12.308 47.6319 11.46V10.164C47.6319 9.316 47.4599 8.66 47.1159 8.196C46.7799 7.732 46.2759 7.5 45.6039 7.5H44.3199V14.124H45.6039ZM57.6185 6.624H60.4625C61.1825 6.624 61.7465 6.82 62.1545 7.212C62.5625 7.604 62.7665 8.128 62.7665 8.784C62.7665 9.288 62.6425 9.684 62.3945 9.972C62.1545 10.26 61.8425 10.464 61.4585 10.584V10.62C61.9305 10.732 62.3185 10.944 62.6225 11.256C62.9265 11.56 63.0785 12.004 63.0785 12.588C63.0785 12.924 63.0225 13.24 62.9105 13.536C62.7985 13.832 62.6385 14.088 62.4305 14.304C62.2305 14.52 61.9905 14.692 61.7105 14.82C61.4385 14.94 61.1425 15 60.8225 15H57.6185V6.624ZM60.5225 14.124C60.9865 14.124 61.3505 14.02 61.6145 13.812C61.8785 13.604 62.0105 13.284 62.0105 12.852V12.36C62.0105 11.936 61.8785 11.62 61.6145 11.412C61.3505 11.196 60.9865 11.088 60.5225 11.088H58.6265V14.124H60.5225ZM60.3545 10.26C60.7785 10.26 61.1105 10.168 61.3505 9.984C61.5905 9.792 61.7105 9.504 61.7105 9.12V8.652C61.7105 8.268 61.5905 7.98 61.3505 7.788C61.1105 7.596 60.7785 7.5 60.3545 7.5H58.6265V10.26H60.3545ZM66.8538 15V11.712L63.9618 6.624H65.1138L66.3138 8.808L67.3338 10.716H67.3818L68.4258 8.808L69.6258 6.624H70.7538L67.8618 11.712V15H66.8538Z" fill="#7D8188"/>
<path d="M84.7171 4.97185e-07C83.9625 0.00374619 83.216 0.156195 82.5203 0.448667C81.8245 0.741139 81.1932 1.16793 80.6623 1.70459C80.1314 2.24125 79.7114 2.87731 79.4262 3.57644C79.141 4.27557 78.9962 5.02407 79.0001 5.7792V7.68811H83.6452V4.92249C83.6451 4.79261 83.6706 4.66399 83.7203 4.54398C83.7699 4.42397 83.8427 4.31493 83.9345 4.22308C84.0262 4.13123 84.1352 4.0584 84.2551 4.0087C84.375 3.95901 84.5035 3.93344 84.6333 3.93347H84.8008C84.9306 3.93344 85.0591 3.95901 85.1791 4.0087C85.299 4.0584 85.408 4.13123 85.4997 4.22308C85.5915 4.31493 85.6643 4.42397 85.714 4.54398C85.7636 4.66399 85.7892 4.7926 85.7892 4.92249V12.3365C86.3992 12.3365 87.0032 12.2163 87.5668 11.9827C88.1304 11.7491 88.6425 11.4067 89.0738 10.975C89.5052 10.5434 89.8473 10.031 90.0807 9.46701C90.3142 8.90303 90.4343 8.29855 90.4343 7.68811V5.7792C90.4376 4.24921 89.8355 2.7801 88.7597 1.69297C88.2318 1.1565 87.6025 0.730534 86.9084 0.439879C86.2144 0.149224 85.4694 -0.000314683 84.7171 4.97185e-07Z" fill="#7D8188"/>
<path d="M84.801 16.0903H84.6336C84.5038 16.0903 84.3753 16.0648 84.2554 16.0151C84.1355 15.9654 84.0265 15.8925 83.9348 15.8007C83.843 15.7089 83.7702 15.5999 83.7206 15.4799C83.6709 15.3599 83.6454 15.2313 83.6454 15.1014V7.6875C83.0354 7.68745 82.4313 7.80763 81.8677 8.04121C81.3041 8.27479 80.7921 8.61718 80.3607 9.04883C79.9294 9.48048 79.5872 9.99293 79.3538 10.5569C79.1204 11.1209 79.0002 11.7254 79.0003 12.3358V14.2182C78.9926 14.9744 79.1347 15.7246 79.4186 16.4256C79.7024 17.1265 80.1223 17.7641 80.6539 18.3016C81.1856 18.8391 81.8184 19.2658 82.5159 19.557C83.2134 19.8482 83.9616 19.9981 84.7174 19.9981C85.4731 19.9981 86.2214 19.8482 86.9189 19.557C87.6163 19.2658 88.2492 18.8391 88.7808 18.3016C89.3125 17.7641 89.7324 17.1265 90.0162 16.4256C90.3001 15.7246 90.4422 14.9744 90.4345 14.2182V12.3358H85.7894V15.1014C85.7894 15.2313 85.7638 15.3599 85.7141 15.4799C85.6645 15.5999 85.5917 15.7089 85.4999 15.8007C85.4081 15.8926 85.2991 15.9654 85.1792 16.0151C85.0593 16.0648 84.9308 16.0903 84.801 16.0903Z" fill="#7D8188"/>
<path d="M98.3741 5.86719H96.7461V14.132H101.524V12.5738H98.3743L98.3741 5.86719Z" fill="#7D8188"/>
<path d="M106.74 8.92741C106.51 8.64184 106.216 8.41482 105.882 8.265C105.547 8.11518 105.182 8.04682 104.816 8.06552C104.434 8.06251 104.056 8.14161 103.707 8.29747C103.358 8.45333 103.046 8.68233 102.793 8.969C102.25 9.57826 101.949 10.3663 101.949 11.1828C101.949 11.9994 102.25 12.7875 102.793 13.3967C103.046 13.6833 103.358 13.9122 103.707 14.068C104.056 14.2238 104.434 14.3028 104.816 14.2998C105.642 14.2998 106.283 14.0125 106.74 13.4379V14.1346H108.262V8.23127H106.74V8.92741ZM106.274 12.3811C106.12 12.5349 105.937 12.6556 105.735 12.7358C105.533 12.8159 105.317 12.8539 105.1 12.8474C104.883 12.8543 104.668 12.8165 104.467 12.7363C104.266 12.656 104.084 12.5351 103.931 12.3811C103.635 12.0523 103.471 11.6253 103.471 11.1826C103.471 10.7398 103.635 10.3128 103.931 9.98405C104.084 9.83016 104.266 9.70932 104.467 9.62912C104.668 9.54891 104.883 9.51106 105.1 9.5179C105.317 9.51145 105.533 9.54949 105.735 9.62965C105.937 9.70981 106.12 9.8304 106.274 9.98405C106.573 10.3112 106.74 10.7388 106.74 11.1826C106.74 11.6263 106.573 12.054 106.274 12.3811Z" fill="#7D8188"/>
<path d="M112.183 12.1983L110.644 8.23047H108.98L111.398 13.9452C111.297 14.2862 111.098 14.59 110.826 14.8189C110.54 15.013 110.197 15.1046 109.853 15.0789V16.4959C110.524 16.5581 111.196 16.3755 111.744 15.9818C112.25 15.5994 112.657 14.9868 112.964 14.144L115.115 8.23086H113.486L112.183 12.1983Z" fill="#7D8188"/>
<path d="M118.408 8.06435C117.993 8.04976 117.579 8.12144 117.193 8.27492C116.808 8.4284 116.458 8.66034 116.166 8.95602C115.603 9.5619 115.291 10.3593 115.293 11.1868C115.295 12.0143 115.611 12.8101 116.178 13.413C116.768 14.0032 117.55 14.2983 118.526 14.2985C119.658 14.2985 120.516 13.8774 121.098 13.0354L119.871 12.3267C119.715 12.5249 119.513 12.6821 119.283 12.785C119.053 12.8878 118.801 12.9331 118.549 12.9171C117.645 12.9171 117.09 12.5472 116.886 11.8074H121.334C121.372 11.6009 121.392 11.3913 121.393 11.1813C121.415 10.359 121.112 9.56117 120.549 8.96164C120.277 8.66818 119.945 8.4363 119.575 8.28156C119.206 8.12682 118.808 8.05278 118.408 8.06435ZM116.862 10.6266C116.93 10.2797 117.118 9.96795 117.393 9.74673C117.686 9.53011 118.044 9.41976 118.407 9.43393C118.74 9.4296 119.065 9.53324 119.334 9.7293C119.62 9.9496 119.812 10.2702 119.871 10.6264L116.862 10.6266Z" fill="#7D8188"/>
<path d="M123.977 9.24278V8.22711H122.455V14.1307H123.977V11.3089C123.977 10.7422 124.16 10.3368 124.526 10.0927C124.892 9.84857 125.335 9.74772 125.771 9.8093V8.10955C125.388 8.10469 125.011 8.20253 124.679 8.39291C124.351 8.58328 124.102 8.88473 123.977 9.24278Z" fill="#7D8188"/>
<path d="M133.192 7.14542V5.86719H127.779V7.4258H131.13L127.691 12.8304V14.1318H133.258V12.5736H129.754L133.192 7.14542Z" fill="#7D8188"/>
<path d="M136.851 8.06436C136.436 8.04976 136.023 8.12144 135.637 8.27492C135.251 8.4284 134.901 8.66033 134.61 8.95603C134.046 9.56188 133.734 10.3593 133.736 11.1869C133.739 12.0144 134.055 12.8101 134.621 13.413C135.211 14.0032 135.994 14.2983 136.969 14.2985C138.102 14.2985 138.959 13.8774 139.541 13.0354L138.314 12.3267C138.158 12.5249 137.957 12.6821 137.726 12.7849C137.496 12.8878 137.245 12.9331 136.993 12.9171C136.088 12.9171 135.534 12.5472 135.329 11.8074H139.778C139.815 11.6008 139.835 11.3913 139.836 11.1813C139.859 10.359 139.556 9.56117 138.993 8.96164C138.72 8.66817 138.388 8.4363 138.019 8.28156C137.65 8.12682 137.252 8.05277 136.851 8.06436ZM135.306 10.6266C135.373 10.2797 135.561 9.96789 135.837 9.74673C136.13 9.53004 136.487 9.41968 136.851 9.43394C137.184 9.4295 137.509 9.53315 137.778 9.7293C138.064 9.94957 138.255 10.2702 138.314 10.6264L135.306 10.6266Z" fill="#7D8188"/>
<path d="M142.421 9.24669V8.23101H140.898V14.1346H142.421V11.3128C142.421 10.7461 142.603 10.3407 142.969 10.0966C143.335 9.85249 143.778 9.75164 144.214 9.81321V8.11345C143.831 8.10863 143.454 8.20648 143.123 8.39681C142.795 8.58715 142.546 8.88862 142.421 9.24669Z" fill="#7D8188"/>
<path d="M147.683 8.06329C146.969 8.07118 146.28 8.32617 145.732 8.78497C145.185 9.24376 144.813 9.87809 144.679 10.5802C144.546 11.2823 144.66 12.009 145.001 12.6368C145.342 13.2646 145.89 13.7548 146.552 14.0243C147.213 14.2937 147.948 14.3257 148.63 14.1149C149.312 13.904 149.901 13.4633 150.295 12.8676C150.69 12.2719 150.866 11.558 150.795 10.8469C150.723 10.1358 150.407 9.4715 149.902 8.96678C149.613 8.67219 149.268 8.43996 148.886 8.28455C148.505 8.12914 148.095 8.05383 147.683 8.06329ZM148.828 12.3493C148.679 12.5001 148.5 12.6187 148.303 12.6978C148.106 12.7769 147.896 12.8148 147.683 12.8092C147.472 12.8152 147.262 12.7775 147.066 12.6983C146.87 12.6192 146.692 12.5004 146.544 12.3493C146.252 12.0302 146.09 11.6131 146.09 11.1803C146.09 10.7476 146.252 10.3305 146.544 10.0114C146.692 9.86036 146.87 9.74158 147.066 9.66243C147.262 9.58328 147.472 9.54548 147.683 9.55146C147.896 9.54589 148.106 9.58387 148.303 9.66297C148.5 9.74207 148.679 9.86063 148.828 10.0114C149.124 10.3287 149.288 10.7464 149.288 11.1803C149.288 11.6142 149.124 12.032 148.828 12.3493Z" fill="#7D8188"/>
<path d="M153.999 12.3125H152.146V14.1308H153.999V12.3125Z" fill="#7D8188"/>
</svg>
